<mxfile host="app.diagrams.net" modified="2024-02-21T16:29:03.711Z" agent="Mozilla/5.0 (X11; Linux x86_64; rv:109.0) Gecko/20100101 Firefox/115.0" version="23.1.5" etag="MY216pl11RmG3L8_Q9Wb" type="github">
  <diagram name="Page-1" id="I8N0SqnLTlmVyGFZyO8Q">
    <mxGraphModel>
      <root>
        <mxCell id="0" />
        <mxCell id="1" parent="0" />
      </root>
    </mxGraphModel>
  </diagram>
</mxfile>
